<svg width="48" height="49" viewBox="0 0 48 49" fill="none" xmlns="http://www.w3.org/2000/svg">
<path d="M10.1632 9.34894L10.2102 11.5357C10.2149 11.7538 10.3237 11.9573 10.5043 12.0855C10.6276 12.1732 10.7748 12.2189 10.9237 12.2189C10.9929 12.2189 11.0623 12.2091 11.1299 12.1891L13.2724 11.5568L15.4149 12.1891C15.6285 12.2522 15.8602 12.2141 16.0406 12.0856C16.2211 11.9573 16.33 11.7539 16.3346 11.5358L16.3816 9.34903L17.6577 7.55078C17.7849 7.37157 17.819 7.14455 17.75 6.93706C17.681 6.72957 17.5167 6.56563 17.306 6.49389L15.1934 5.77475L13.841 4.03223C13.7061 3.85842 13.4957 3.75626 13.2724 3.75626C13.0492 3.75626 12.8389 3.85842 12.704 4.03223L11.3514 5.77466L9.23876 6.4938C9.02808 6.56553 8.86384 6.72948 8.79475 6.93696C8.72567 7.14445 8.75992 7.37148 8.88706 7.55068L10.1632 9.34894ZM12.0242 7.0235C12.157 6.97837 12.2731 6.89584 12.3581 6.78633L13.2724 5.60839L14.1866 6.78633C14.2717 6.89584 14.3878 6.97828 14.5205 7.0235L15.9493 7.50993L15.0862 8.7262C15.0061 8.83887 14.9619 8.97221 14.959 9.10935L14.9273 10.5874L13.4786 10.1598C13.3443 10.12 13.2006 10.12 13.0662 10.1598L11.6175 10.5874L11.5858 9.10935C11.5829 8.97211 11.5386 8.83887 11.4586 8.7262L10.5954 7.50993L12.0242 7.0235Z" fill="#D50004"/>
<path d="M20.9675 6.45159L21.0145 8.63803C21.0192 8.85612 21.1277 9.05942 21.3082 9.18773C21.4887 9.31613 21.7201 9.35437 21.9335 9.29166L24.0766 8.66157L26.2197 9.29166C26.2871 9.31148 26.3564 9.32116 26.4252 9.32116C26.5742 9.32116 26.7215 9.27547 26.845 9.18764C27.0254 9.05933 27.134 8.85603 27.1387 8.63793L27.1857 6.4515L28.4616 4.65594C28.5889 4.47683 28.6232 4.24989 28.5544 4.0424C28.4856 3.83492 28.3215 3.67088 28.1109 3.59896L25.9976 2.87703L24.6448 1.13692C24.51 0.963397 24.2998 0.861421 24.0769 0.861328C24.0768 0.861328 24.077 0.861328 24.0769 0.861328C23.854 0.861328 23.6437 0.963118 23.5088 1.13646L22.1532 2.87722L20.0421 3.59924C19.8315 3.67116 19.6675 3.8352 19.5987 4.04268C19.5299 4.25008 19.5644 4.47711 19.6916 4.65612L20.9675 6.45159ZM22.8267 4.1254C22.9588 4.08037 23.0743 3.9983 23.1589 3.88953L24.0761 2.71178L24.9913 3.88898C25.0761 3.99812 25.1918 4.08037 25.324 4.12549L26.7535 4.61379L25.8906 5.8282C25.8104 5.94097 25.766 6.07439 25.7632 6.21172L25.7314 7.69075L24.2821 7.26461C24.2151 7.24488 24.1458 7.23511 24.0766 7.23511C24.0074 7.23511 23.9381 7.24488 23.8711 7.26461L22.4219 7.69075L22.3901 6.21172C22.3873 6.0743 22.3429 5.94097 22.2627 5.8282L21.3996 4.61351L22.8267 4.1254Z" fill="#D50004"/>
<path d="M31.7697 9.34798L31.8191 11.5354C31.8241 11.7535 31.9329 11.9567 32.1135 12.0849C32.2941 12.2131 32.5256 12.2511 32.7388 12.188L34.8812 11.5558L37.0208 12.188C37.0885 12.2081 37.1581 12.2178 37.2273 12.2178C37.376 12.2178 37.523 12.1723 37.6464 12.0848C37.8269 11.9567 37.9358 11.7533 37.9408 11.5353L37.9902 9.34826L39.2667 7.54972C39.3938 7.37042 39.428 7.1434 39.359 6.93591C39.29 6.72842 39.1258 6.56448 38.915 6.49274L36.8024 5.7736L35.4498 4.03117C35.315 3.85746 35.1048 3.7553 34.8816 3.7552C34.8815 3.7552 34.8817 3.7552 34.8816 3.7552C34.6587 3.7552 34.4482 3.85718 34.3131 4.03071L32.9579 5.77351L30.8474 6.49274C30.6369 6.56448 30.4726 6.72823 30.4037 6.93563C30.3347 7.14293 30.3686 7.36986 30.4956 7.54907L31.7697 9.34798ZM33.6307 7.02244C33.7631 6.97731 33.8789 6.89506 33.9639 6.78583L34.8808 5.60678L35.7956 6.78536C35.8806 6.89488 35.9967 6.97731 36.1294 7.02253L37.5582 7.50896L36.695 8.72514C36.6151 8.83772 36.5709 8.97078 36.5678 9.10764L36.5344 10.5864L35.0877 10.1589C34.9531 10.119 34.8095 10.1189 34.675 10.1589L33.2254 10.5867L33.192 9.10764C33.1889 8.97087 33.1448 8.8381 33.0652 8.7257L32.2032 7.50896L33.6307 7.02244Z" fill="#D50004"/>
<path d="M34.0637 20.6567C34.0637 18.0481 33.0243 15.5959 31.1373 13.7523C27.2447 9.94602 20.9085 9.94602 17.0128 13.7523C13.1202 17.5584 13.1201 23.7539 17.013 27.5634C18.9608 29.4664 21.5185 30.418 24.0761 30.418C26.6337 30.418 29.191 29.4663 31.1373 27.5631C33.0244 25.7179 34.0637 23.2651 34.0637 20.6567ZM18.022 14.7393C19.6917 13.1078 21.8837 12.2924 24.076 12.2924C26.2679 12.2924 28.4601 13.1082 30.1282 14.7393C31.7456 16.3195 32.6363 18.421 32.6363 20.6567C32.6363 22.7726 31.8373 24.7684 30.3805 26.3169C29.9994 24.74 29.0063 23.3503 27.6041 22.4556C28.2033 21.7098 28.562 20.7711 28.562 19.7514C28.562 17.333 26.5498 15.3654 24.0763 15.3654C21.6028 15.3654 19.5907 17.3329 19.5907 19.7514C19.5907 20.7712 19.9495 21.7099 20.5486 22.4557C19.1459 23.3507 18.1526 24.741 17.7718 26.3186C14.6895 23.0378 14.772 17.9171 18.022 14.7393ZM21.0182 19.7514C21.0182 18.1025 22.3901 16.761 24.0764 16.761C25.7628 16.761 27.1347 18.1025 27.1347 19.7514C27.1347 21.4004 25.7628 22.7419 24.0764 22.7419C22.3901 22.7419 21.0182 21.4004 21.0182 19.7514ZM19.0388 27.4254C19.156 25.7561 20.1436 24.2486 21.6482 23.4364C22.3487 23.8792 23.182 24.1375 24.0764 24.1375C24.9708 24.1375 25.8041 23.8792 26.5046 23.4364C28.0087 24.2484 28.9962 25.7553 29.114 27.424C26.1246 29.5546 22.0302 29.5551 19.0388 27.4254Z" fill="#D50004"/>
<path d="M47.1704 16.0842C46.6773 15.5367 45.997 15.2096 45.2548 15.1632C44.5131 15.1159 43.7966 15.357 43.2362 15.8401C42.8728 16.1532 42.6051 16.5434 42.4485 16.9767C42.3234 16.9516 42.1962 16.9338 42.0674 16.9253C41.3271 16.8783 40.609 17.1189 40.0478 17.6018C39.4868 18.0844 39.1517 18.7493 39.1041 19.4755L39.0229 20.755L38.6442 26.5814C38.4508 26.6798 38.2616 26.7961 38.0791 26.9311C38.0699 26.9378 38.0609 26.9449 38.052 26.9521L33.0816 31.0106C30.8948 32.7945 30.6743 34.3494 30.4732 36.9441L30.1577 41.0322H29.3801C28.4957 41.0322 27.7762 41.7369 27.7762 42.6031V46.9316C27.7762 47.7964 28.4958 48.4999 29.3801 48.4999H33.9556C34.3498 48.4999 34.6693 48.1875 34.6693 47.8021C34.6693 47.4166 34.3498 47.1042 33.9556 47.1042H29.3801C29.2843 47.1042 29.2036 47.0252 29.2036 46.9316V42.6031C29.2036 42.5082 29.2844 42.4279 29.3801 42.4279H41.8322C41.928 42.4279 42.0088 42.5081 42.0088 42.6031V46.9316C42.0088 47.0252 41.9279 47.1042 41.8322 47.1042H37.2595C36.8652 47.1042 36.5458 47.4166 36.5458 47.8021C36.5458 48.1875 36.8652 48.4999 37.2595 48.4999H41.8323C42.7167 48.4999 43.4362 47.7963 43.4362 46.9316V42.6031C43.4362 41.7369 42.7166 41.0322 41.8323 41.0322H41.3894C45.018 37.3402 46.8694 33.3306 47.1824 28.5347L47.8616 18.0579C47.9091 17.3328 47.6636 16.632 47.1704 16.0842ZM40.4476 20.8424L40.5288 19.5632C40.5519 19.2105 40.716 18.8861 40.9907 18.6495C41.2656 18.4131 41.6156 18.2951 41.9732 18.3179C42.0686 18.3244 42.1615 18.3421 42.2518 18.3665L41.7163 26.6028C41.5371 26.498 41.3446 26.4103 41.1403 26.3443C40.8027 26.235 40.4521 26.1883 40.0995 26.1992L40.4476 20.8424ZM46.437 17.969L45.7578 28.4461C45.4403 33.3093 43.4039 37.3151 39.358 41.0322H31.589L31.8963 37.0494C32.0832 34.6403 32.2398 33.5148 33.9962 32.082L38.9528 28.0348C39.7186 27.4753 40.3704 27.5653 40.6918 27.6691C41.1237 27.8089 41.4517 28.1268 41.5693 28.5201C41.7307 29.0583 41.4971 29.669 40.9107 30.2406C40.5239 30.6188 39.9208 31.2322 39.2823 31.8815C38.4159 32.7627 37.4336 33.7614 36.9568 34.2051C36.6712 34.4706 36.66 34.9125 36.9317 35.1917C37.2032 35.4709 37.6551 35.4819 37.9407 35.2163C38.4407 34.7513 39.3916 33.7842 40.3112 32.849C40.9448 32.2047 41.5431 31.5961 41.9193 31.2283C42.7608 30.4082 43.1497 29.4373 43.0224 28.5119L43.7187 17.8013C43.7418 17.4481 43.9056 17.1234 44.1799 16.8872C44.4539 16.6512 44.8021 16.5335 45.1635 16.556C45.5255 16.5787 45.8577 16.7387 46.0991 17.0067C46.3402 17.2742 46.4603 17.6158 46.437 17.969Z" fill="#D50004"/>
<path d="M18.7731 41.0321H17.9955L17.6799 36.9438C17.4789 34.351 17.2586 32.7971 15.0717 31.0107L10.1011 26.952C10.0922 26.9448 10.0832 26.9378 10.0739 26.9308C9.88685 26.7927 9.69786 26.6766 9.50859 26.5793L9.04622 19.4739C8.99874 18.7493 8.66425 18.0845 8.10453 17.6021C7.54405 17.1191 6.82636 16.8782 6.08346 16.9254C5.95433 16.934 5.82796 16.9513 5.70425 16.9759C5.54734 16.5428 5.27918 16.1528 4.91529 15.8397C4.35414 15.357 3.63646 15.1159 2.89575 15.1632C1.36008 15.2594 0.190675 16.558 0.288973 18.0575L0.970879 28.5346C1.28186 33.3299 3.13221 37.3397 6.76118 41.0321H6.32088C5.43648 41.0321 4.71698 41.7368 4.71698 42.6031V46.9316C4.71698 47.7963 5.43657 48.4998 6.32088 48.4998H10.8937C11.288 48.4998 11.6074 48.1875 11.6074 47.802C11.6074 47.4165 11.288 47.1041 10.8937 47.1041H6.32097C6.22525 47.1041 6.14446 47.0251 6.14446 46.9316V42.6031C6.14446 42.5081 6.22534 42.4278 6.32097 42.4278H18.7731C18.8689 42.4278 18.9496 42.508 18.9496 42.6031V46.9316C18.9496 47.0252 18.8688 47.1041 18.7731 47.1041H14.2003C13.806 47.1041 13.4866 47.4165 13.4866 47.802C13.4866 48.1875 13.806 48.4998 14.2003 48.4998H18.7731C19.6575 48.4998 20.377 47.7962 20.377 46.9316V42.6031C20.3771 41.7368 19.6575 41.0321 18.7731 41.0321ZM6.17729 18.318C6.53736 18.2962 6.88669 18.413 7.16065 18.6492C7.4349 18.8855 7.59876 19.2101 7.62179 19.563L8.05324 26.193C7.45745 26.176 6.90078 26.33 6.43688 26.6019L5.90133 18.3658C5.99039 18.3418 6.08203 18.3244 6.17729 18.318ZM2.3954 28.4461L1.7135 17.9687C1.66554 17.2368 2.23677 16.603 2.987 16.556C3.34889 16.5341 3.69765 16.6511 3.97237 16.8875C4.24709 17.1239 4.41124 17.4484 4.43427 17.8008L4.44512 17.9677C4.4455 17.9753 4.44597 17.9828 4.44654 17.9903L5.12988 28.5008C5.00893 29.3382 5.29421 30.3122 6.23095 31.2281C6.61616 31.6037 7.22917 32.2267 7.87834 32.8864C8.78339 33.8062 9.71928 34.7573 10.2124 35.2161C10.4981 35.4817 10.9497 35.4708 11.2214 35.1915C11.4932 34.9123 11.4819 34.4706 11.1963 34.2049C10.726 33.7674 9.80121 32.8275 8.90691 31.9187C8.2526 31.2537 7.63454 30.6256 7.23963 30.2405C6.31888 29.3402 6.42746 28.529 6.83597 28.0702C7.3092 27.5383 8.27172 27.3571 9.20038 28.0347L14.1568 32.0817C15.9135 33.5166 16.0701 34.6416 16.2568 37.049L16.5641 41.032H8.79243C4.7462 37.3146 2.71066 33.3088 2.3954 28.4461Z" fill="#D50004"/>
</svg>
