<svg width="93" height="88" viewBox="0 0 93 88" fill="none" xmlns="http://www.w3.org/2000/svg">
<g filter="url(#filter0_d_561_3671)">
<ellipse cx="46.2866" cy="40" rx="42.2144" ry="40" fill="#F5F7F8"/>
<path d="M32.199 23.8394L32.2448 25.8591C32.2493 26.0606 32.3553 26.2485 32.5314 26.367C32.6516 26.4479 32.7951 26.4901 32.9403 26.4901C33.0077 26.4901 33.0753 26.4811 33.1413 26.4626L35.2297 25.8786L37.3181 26.4626C37.5262 26.5209 37.7521 26.4857 37.928 26.367C38.1039 26.2485 38.21 26.0607 38.2146 25.8591L38.2603 23.8394L39.5042 22.1785C39.6282 22.013 39.6615 21.8033 39.5942 21.6117C39.527 21.42 39.3668 21.2686 39.1614 21.2024L37.1021 20.5382L35.7839 18.9287C35.6524 18.7682 35.4473 18.6738 35.2297 18.6738C35.0121 18.6738 34.8071 18.7682 34.6755 18.9287L33.3571 20.5381L31.2978 21.2023C31.0925 21.2685 30.9324 21.42 30.865 21.6116C30.7977 21.8032 30.8311 22.0129 30.955 22.1784L32.199 23.8394ZM34.013 21.6915C34.1424 21.6498 34.2555 21.5736 34.3384 21.4725L35.2297 20.3845L36.1208 21.4725C36.2037 21.5736 36.3169 21.6498 36.4463 21.6915L37.839 22.1408L36.9976 23.2642C36.9196 23.3682 36.8765 23.4914 36.8737 23.6181L36.8428 24.9832L35.4307 24.5883C35.2997 24.5515 35.1596 24.5515 35.0287 24.5883L33.6165 24.9832L33.5856 23.6181C33.5828 23.4913 33.5397 23.3682 33.4616 23.2642L32.6203 22.1408L34.013 21.6915Z" fill="#C00003"/>
<path d="M42.7304 21.1633L42.7763 23.1827C42.7808 23.3842 42.8867 23.572 43.0626 23.6905C43.2385 23.8091 43.4641 23.8444 43.6721 23.7865L45.7611 23.2045L47.85 23.7865C47.9158 23.8048 47.9833 23.8137 48.0504 23.8137C48.1957 23.8137 48.3392 23.7715 48.4595 23.6904C48.6354 23.5719 48.7413 23.3841 48.7459 23.1827L48.7917 21.1632L50.0354 19.5048C50.1595 19.3394 50.1929 19.1298 50.1258 18.9381C50.0588 18.7465 49.8988 18.595 49.6936 18.5285L47.6335 17.8618L46.3149 16.2545C46.1835 16.0943 45.9787 16.0001 45.7614 16C45.7613 16 45.7614 16 45.7614 16C45.5441 16 45.3391 16.094 45.2076 16.2541L43.8862 17.8619L41.8284 18.5288C41.6231 18.5952 41.4633 18.7467 41.3962 18.9384C41.3292 19.1299 41.3628 19.3396 41.4868 19.505L42.7304 21.1633ZM44.5427 19.0148C44.6715 18.9732 44.7841 18.8974 44.8665 18.7969L45.7606 17.7091L46.6527 18.7964C46.7353 18.8972 46.8481 18.9732 46.977 19.0149L48.3704 19.4659L47.5293 20.5875C47.4511 20.6917 47.4079 20.8149 47.4051 20.9418L47.3741 22.3078L45.9614 21.9142C45.896 21.896 45.8285 21.887 45.7611 21.887C45.6936 21.887 45.6261 21.896 45.5607 21.9142L44.1481 22.3078L44.1172 20.9418C44.1144 20.8148 44.0711 20.6917 43.993 20.5875L43.1517 19.4656L44.5427 19.0148Z" fill="#C00003"/>
<path d="M53.26 23.8385L53.3081 25.8589C53.313 26.0603 53.4191 26.248 53.595 26.3663C53.7711 26.4847 53.9968 26.5199 54.2046 26.4616L56.2929 25.8777L58.3785 26.4616C58.4445 26.4801 58.5123 26.4891 58.5798 26.4891C58.7247 26.4891 58.868 26.4471 58.9883 26.3662C59.1642 26.248 59.2704 26.0601 59.2752 25.8588L59.3234 23.8387L60.5677 22.1776C60.6916 22.012 60.7249 21.8023 60.6577 21.6106C60.5904 21.419 60.4303 21.2676 60.2249 21.2013L58.1656 20.5371L56.8472 18.9277C56.7157 18.7673 56.5108 18.6729 56.2933 18.6729C56.2932 18.6729 56.2934 18.6729 56.2933 18.6729C56.076 18.6729 55.8708 18.767 55.7392 18.9273L54.4182 20.537L52.3609 21.2013C52.1557 21.2676 51.9956 21.4188 51.9285 21.6104C51.8611 21.8018 51.8943 22.0114 52.018 22.177L53.26 23.8385ZM55.0739 21.6905C55.2031 21.6489 55.3159 21.5729 55.3988 21.472L56.2925 20.383L57.1842 21.4716C57.2671 21.5727 57.3802 21.6489 57.5096 21.6906L58.9024 22.1399L58.0609 23.2632C57.9831 23.3672 57.9399 23.4901 57.937 23.6165L57.9044 24.9823L56.4942 24.5874C56.363 24.5506 56.223 24.5505 56.0919 24.5874L54.6789 24.9826L54.6463 23.6165C54.6434 23.4902 54.6003 23.3675 54.5228 23.2637L53.6825 22.1399L55.0739 21.6905Z" fill="#C00003"/>
<path d="M55.496 34.2834C55.496 31.8741 54.4829 29.6092 52.6436 27.9064C48.8492 24.3908 42.6729 24.3908 38.8756 27.9064C35.0813 31.4218 35.0812 37.1441 38.8758 40.6627C40.7744 42.4203 43.2676 43.2992 45.7606 43.2992C48.2536 43.2992 50.7463 42.4203 52.6436 40.6624C54.483 38.9581 55.496 36.6926 55.496 34.2834ZM39.8594 28.818C41.4869 27.3112 43.6235 26.558 45.7605 26.558C47.897 26.558 50.0339 27.3115 51.6599 28.818C53.2365 30.2775 54.1047 32.2185 54.1047 34.2834C54.1047 36.2377 53.3259 38.0811 51.9059 39.5114C51.5344 38.0549 50.5663 36.7713 49.1995 35.945C49.7836 35.2562 50.1332 34.3891 50.1332 33.4474C50.1332 31.2136 48.1718 29.3963 45.7608 29.3963C43.3498 29.3963 41.3884 31.2135 41.3884 33.4474C41.3884 34.3892 41.7381 35.2563 42.3221 35.945C40.9549 36.7717 39.9866 38.0558 39.6154 39.5129C36.6109 36.4827 36.6914 31.7531 39.8594 28.818ZM42.7799 33.4474C42.7799 31.9244 44.1171 30.6853 45.7609 30.6853C47.4047 30.6853 48.742 31.9244 48.742 33.4474C48.742 34.9703 47.4047 36.2094 45.7609 36.2094C44.1171 36.2094 42.7799 34.9703 42.7799 33.4474ZM40.8505 40.5352C40.9647 38.9934 41.9274 37.6011 43.394 36.8509C44.0768 37.2599 44.8891 37.4984 45.7609 37.4984C46.6327 37.4984 47.445 37.2599 48.1277 36.8509C49.5939 37.6009 50.5565 38.9926 50.6713 40.5339C47.7574 42.5018 43.7663 42.5022 40.8505 40.5352Z" fill="#C00003"/>
<path d="M68.2719 30.0602C67.7912 29.5545 67.1281 29.2524 66.4046 29.2095C65.6817 29.1659 64.9832 29.3885 64.437 29.8347C64.0827 30.1239 63.8218 30.4843 63.6691 30.8845C63.5473 30.8613 63.4233 30.8449 63.2977 30.837C62.5761 30.7936 61.8761 31.0159 61.3291 31.4619C60.7822 31.9076 60.4556 32.5217 60.4092 33.1925L60.33 34.3743L59.9609 39.7557C59.7724 39.8465 59.588 39.954 59.4101 40.0787C59.4011 40.0848 59.3923 40.0914 59.3836 40.0981L54.5388 43.8466C52.4071 45.4943 52.1922 46.9304 51.9961 49.3269L51.6887 53.1028H50.9307C50.0686 53.1028 49.3672 53.7536 49.3672 54.5537V58.5516C49.3672 59.3503 50.0687 60.0001 50.9307 60.0001H55.3907C55.7749 60.0001 56.0863 59.7116 56.0863 59.3556C56.0863 58.9995 55.7749 58.711 55.3907 58.711H50.9307C50.8373 58.711 50.7586 58.638 50.7586 58.5516V54.5537C50.7586 54.466 50.8374 54.3918 50.9307 54.3918H63.0685C63.1618 54.3918 63.2405 54.4659 63.2405 54.5537V58.5516C63.2405 58.6381 63.1617 58.711 63.0685 58.711H58.6111C58.2269 58.711 57.9155 58.9995 57.9155 59.3556C57.9155 59.7116 58.2269 60.0001 58.6111 60.0001H63.0686C63.9306 60.0001 64.632 59.3502 64.632 58.5516V54.5537C64.632 53.7536 63.9305 53.1028 63.0686 53.1028H62.6368C66.1738 49.6928 67.9784 45.9894 68.2836 41.5598L68.9456 31.8831C68.9919 31.2134 68.7526 30.5661 68.2719 30.0602ZM61.7188 34.455L61.7979 33.2735C61.8204 32.9477 61.9804 32.6481 62.2482 32.4296C62.5161 32.2113 62.8573 32.1022 63.2058 32.1233C63.2989 32.1293 63.3894 32.1457 63.4774 32.1682L62.9555 39.7754C62.7807 39.6786 62.5931 39.5977 62.394 39.5367C62.0649 39.4358 61.7231 39.3926 61.3795 39.4027L61.7188 34.455ZM67.5569 31.8011L66.8949 41.4779C66.5854 45.9697 64.6004 49.6696 60.6567 53.1028H53.0838L53.3834 49.4242C53.5656 47.199 53.7182 46.1595 55.4303 44.8362L60.2617 41.0981C61.0082 40.5813 61.6435 40.6644 61.9568 40.7603C62.3778 40.8894 62.6975 41.183 62.8122 41.5463C62.9695 42.0434 62.7418 42.6075 62.1702 43.1354C61.7932 43.4847 61.2053 44.0512 60.5829 44.651C59.7383 45.4649 58.7809 46.3873 58.3161 46.7971C58.0377 47.0424 58.0268 47.4505 58.2916 47.7084C58.5563 47.9662 58.9967 47.9764 59.2752 47.7311C59.7625 47.3015 60.6894 46.4083 61.5858 45.5445C62.2034 44.9495 62.7867 44.3874 63.1533 44.0477C63.9736 43.2901 64.3527 42.3935 64.2286 41.5387L64.9073 31.6461C64.9298 31.3199 65.0895 31.0201 65.3568 30.8019C65.6239 30.5839 65.9634 30.4751 66.3157 30.4959C66.6685 30.5169 66.9923 30.6647 67.2276 30.9122C67.4626 31.1593 67.5797 31.4749 67.5569 31.8011Z" fill="#C00003"/>
<path d="M40.5915 53.1027H39.8335L39.5259 49.3267C39.3299 46.9318 39.1152 45.4966 36.9836 43.8467L32.1384 40.098C32.1297 40.0913 32.1209 40.0849 32.1119 40.0784C31.9296 39.9508 31.7453 39.8436 31.5608 39.7537L31.1101 33.191C31.0639 32.5217 30.7378 31.9077 30.1922 31.4621C29.6459 31.016 28.9463 30.7935 28.2222 30.8372C28.0963 30.8451 27.9731 30.8611 27.8526 30.8838C27.6996 30.4838 27.4382 30.1236 27.0835 29.8344C26.5365 29.3885 25.837 29.1659 25.1149 29.2095C23.618 29.2984 22.4782 30.4978 22.574 31.8828L23.2387 41.5597C23.5418 45.9888 25.3454 49.6922 28.8828 53.1027H28.4536C27.5915 53.1027 26.8902 53.7536 26.8902 54.5536V58.5515C26.8902 59.3502 27.5916 60 28.4536 60H32.911C33.2953 60 33.6067 59.7115 33.6067 59.3555C33.6067 58.9994 33.2953 58.711 32.911 58.711H28.4537C28.3604 58.711 28.2816 58.6379 28.2816 58.5515V54.5536C28.2816 54.4659 28.3605 54.3917 28.4537 54.3917H40.5915C40.6848 54.3917 40.7636 54.4658 40.7636 54.5536V58.5515C40.7636 58.638 40.6847 58.711 40.5915 58.711H36.1341C35.7498 58.711 35.4384 58.9994 35.4384 59.3555C35.4384 59.7115 35.7498 60 36.1341 60H40.5915C41.4536 60 42.1549 59.3502 42.1549 58.5515V54.5536C42.155 53.7536 41.4536 53.1027 40.5915 53.1027ZM28.3136 32.1234C28.6646 32.1032 29.0051 32.2112 29.2722 32.4293C29.5395 32.6476 29.6992 32.9474 29.7217 33.2733L30.1422 39.3969C29.5615 39.3812 29.0189 39.5235 28.5667 39.7746L28.0446 32.1675C28.1315 32.1453 28.2208 32.1293 28.3136 32.1234ZM24.6272 41.478L23.9625 31.8007C23.9158 31.1247 24.4726 30.5394 25.2039 30.4959C25.5567 30.4757 25.8966 30.5838 26.1644 30.8021C26.4322 31.0205 26.5922 31.3203 26.6146 31.6457L26.6252 31.7999C26.6256 31.8068 26.626 31.8138 26.6266 31.8208L27.2927 41.5284C27.1748 42.3019 27.4529 43.2015 28.366 44.0474C28.7414 44.3944 29.339 44.9698 29.9718 45.5791C30.854 46.4287 31.7662 47.3071 32.2469 47.7309C32.5253 47.9762 32.9655 47.9661 33.2305 47.7082C33.4954 47.4503 33.4843 47.0423 33.206 46.7969C32.7475 46.3928 31.8461 45.5247 30.9744 44.6853C30.3366 44.0711 29.7341 43.491 29.3492 43.1353C28.4517 42.3038 28.5575 41.5545 28.9557 41.1307C29.417 40.6395 30.3552 40.4721 31.2604 41.098L36.0917 44.8359C37.8041 46.1611 37.9567 47.2002 38.1386 49.4238L38.4383 53.1026H30.8628C26.9187 49.6691 24.9345 45.9693 24.6272 41.478Z" fill="#C00003"/>
</g>
<defs>
<filter id="filter0_d_561_3671" x="0.0722656" y="0" width="92.4277" height="88" filterUnits="userSpaceOnUse" color-interpolation-filters="sRGB">
<feFlood flood-opacity="0" result="BackgroundImageFix"/>
<feColorMatrix in="SourceAlpha" type="matrix" values="0 0 0 0 0 0 0 0 0 0 0 0 0 0 0 0 0 0 127 0" result="hardAlpha"/>
<feOffset dy="4"/>
<feGaussianBlur stdDeviation="2"/>
<feComposite in2="hardAlpha" operator="out"/>
<feColorMatrix type="matrix" values="0 0 0 0 0 0 0 0 0 0 0 0 0 0 0 0 0 0 0.25 0"/>
<feBlend mode="normal" in2="BackgroundImageFix" result="effect1_dropShadow_561_3671"/>
<feBlend mode="normal" in="SourceGraphic" in2="effect1_dropShadow_561_3671" result="shape"/>
</filter>
</defs>
</svg>
